<?xml version="1.0"?>
<svg xmlns="http://www.w3.org/2000/svg" id="Capa_1" enable-background="new 0 0 512 512" height="512px" viewBox="0 0 512 512" width="512px"><g><path d="m488.667 381.456v-74.229c0-93.545-76.105-169.65-169.65-169.65h-48.017v-15.939c19.092-6.311 32.911-24.313 32.911-45.493 0-26.418-21.493-47.911-47.911-47.911s-47.911 21.493-47.911 47.911c0 21.18 13.82 39.182 32.911 45.493v15.939h-48.017c-93.545 0-169.65 76.105-169.65 169.65v74.229h-23.333v102.313h512v-102.313zm-232.667-323.224c9.876 0 17.911 8.035 17.911 17.911s-8.035 17.912-17.911 17.912-17.911-8.035-17.911-17.912 8.035-17.911 17.911-17.911zm-202.667 248.994c0-77.003 62.647-139.65 139.65-139.65h126.034c77.003 0 139.65 62.647 139.65 139.65v74.229h-405.334zm428.667 146.542h-452v-42.313h452z" data-original="#000000" class="active-path" data-old_color="#000000" fill="#FB5252"/></g> </svg>
