<?xml version="1.0"?>
<svg xmlns="http://www.w3.org/2000/svg" xmlns:xlink="http://www.w3.org/1999/xlink" version="1.1" id="Capa_1" x="0px" y="0px" viewBox="0 0 469.333 469.333" style="enable-background:new 0 0 469.333 469.333;" xml:space="preserve" width="512px" height="512px"><g><g>
	<g>
		<path d="M456.833,12.483c-16.625-16.647-43.708-16.637-60.333-0.01c-5.834,5.834-9.792,13.178-11.438,21.241    c-2.19,10.601-5.801,24.024-13.904,34.479c-18.914-13.788-39.734-20.822-51.701-8.831L59.375,319.456    c-11.964,11.972-4.947,32.804,8.826,51.713c-10.465,8.115-23.87,11.717-34.492,13.897c-8.063,1.667-15.396,5.625-21.208,11.449    C4.438,404.568,0,415.287,0,426.684c0,11.397,4.438,22.116,12.5,30.169c8.313,8.324,19.25,12.48,30.167,12.48    s21.854-4.157,30.167-12.47c5.833-5.834,9.792-13.178,11.438-21.241c2.19-10.601,5.801-24.023,13.904-34.479    c12.159,8.859,25.099,14.967,35.992,14.967c6.042,0,11.438-1.865,15.708-6.136L409.958,149.88    c11.964-11.972,4.947-32.804-8.826-51.713c10.465-8.115,23.87-11.717,34.492-13.897c8.063-1.667,15.396-5.625,21.208-11.449    c8.063-8.063,12.5-18.772,12.5-30.169C469.333,31.245,464.896,20.536,456.833,12.483z" data-original="#000000" class="active-path" data-old_color="#000000" fill="#FB5252"/>
	</g>
</g></g> </svg>
